<svg xmlns="http://www.w3.org/2000/svg" xmlns:xlink="http://www.w3.org/1999/xlink" id="圖層_1" x="0" y="0" version="1.1" viewBox="0 0 100 100" xml:space="preserve" style="transform-origin:50px 50px 0"><g style="transform-origin:50px 50px 0"><g style="transform-origin:50px 50px 0;transform:scale(.73)"><g style="transform-origin:50px 50px 0"><g><style class="ld ld-tremble-px" type="text/css" style="transform-origin:50px 50px 0px;animation-duration:9.9s;animation-delay:-9.9s;animation-direction:normal">.st29,.st30,.st31{stroke:#000;stroke-width:3;stroke-miterlimit:10}.st30{stroke-linecap:round;stroke-linejoin:round}.st31{fill:#e0e0e0}</style><g class="ld ld-tremble-px" style="transform-origin:50px 50px 0;animation-duration:9.9s;animation-delay:-9.31765s;animation-direction:normal"><path fill="#1be3c7" stroke="#1be3c7" d="M37.328,76.238L24.11,63.019c-0.99-0.99-0.57-2.677,0.768-3.088l6.991-2.145l10.693,10.693l-2.145,6.991 C40.006,76.808,38.318,77.228,37.328,76.238z" class="st29" style="fill:#1be3c7;stroke:#1be3c7"/></g><g class="ld ld-tremble-px" style="transform-origin:50px 50px 0;animation-duration:9.9s;animation-delay:-8.73529s;animation-direction:normal"><path fill="#1be3c7" stroke="#1be3c7" d="M52.584,92.847L52.584,92.847C52.584,92.848,52.584,92.847,52.584,92.847 c7.624-6.472,4.221-13.342-0.219-19.324c-1.689-2.275-1.736-5.373-0.111-7.694l6.924-9.889c2.434-3.476,7.744-2.923,9.408,0.981 C74.157,69.995,72.641,87.067,52.584,92.847z" class="st30" style="fill:#1be3c7;stroke:#1be3c7"/></g><g class="ld ld-tremble-px" style="transform-origin:50px 50px 0;animation-duration:9.9s;animation-delay:-8.15294s;animation-direction:normal"><path fill="#1be3c7" stroke="#1be3c7" d="M7.501,47.763L7.501,47.763C7.5,47.764,7.5,47.764,7.501,47.763c6.472-7.624,13.342-4.221,19.324,0.219 c2.275,1.689,5.373,1.736,7.694,0.111l9.889-6.924c3.476-2.434,2.923-7.744-0.981-9.408C30.353,26.19,13.281,27.707,7.501,47.763z" class="st30" style="fill:#1be3c7;stroke:#1be3c7"/></g><g class="ld ld-tremble-px" style="transform-origin:50px 50px 0;animation-duration:9.9s;animation-delay:-7.57059s;animation-direction:normal"><path fill="#3c5edb" stroke="#1be3c7" d="M76.207,56.895C65.609,67.492,52.078,72.009,42.368,69.106c-2.036-2.036-8.805-8.802-11.125-11.122 c-2.906-9.71,1.611-23.244,12.21-33.843C62.034,5.56,86.491,5.242,90.4,9.151S94.375,38.727,76.207,56.895z" class="st31" style="stroke:#1be3c7;fill:#3c5edb"/></g><g class="ld ld-tremble-px" style="transform-origin:50px 50px 0;animation-duration:9.9s;animation-delay:-6.98824s;animation-direction:normal"><ellipse cx="69.507" cy="30.841" fill="#3c5edb" stroke="#1be3c7" class="st31" rx="8.431" ry="8.431" transform="matrix(0.7071 -0.7071 0.7071 0.7071 -1.4493 58.1822)" style="stroke:#1be3c7;fill:#3c5edb"/></g><g class="ld ld-tremble-px" style="transform-origin:50px 50px 0;animation-duration:9.9s;animation-delay:-6.40588s;animation-direction:normal"><path fill="#1be3c7" stroke="#1be3c7" d="M90.4,9.151c-1.972-1.972-9.18-2.864-18.223-0.88l19.405,19.405C93.348,18.499,92.354,11.105,90.4,9.151z" class="st29" style="fill:#1be3c7;stroke:#1be3c7"/></g><g class="ld ld-tremble-px" style="transform-origin:50px 50px 0;animation-duration:9.9s;animation-delay:-5.82353s;animation-direction:normal"><polygon fill="#1be3c7" stroke="#1be3c7" points="26.51 87.355 33.923 72.832 30.719 69.629 30.608 69.517 27.405 66.314 12.881 73.727 19.283 74.906 12.881 87.245 12.529 87.596 12.761 87.476 12.641 87.707 12.992 87.356 25.33 80.953" class="st30" style="fill:#1be3c7;stroke:#1be3c7"/></g><metadata xmlns:d="https://loading.io/stock/" class="ld ld-tremble-px" style="transform-origin:50px 50px 0;animation-duration:9.9s;animation-delay:-5.24118s;animation-direction:normal"><d:name class="ld ld-tremble-px" style="transform-origin:50px 50px 0;animation-duration:9.9s;animation-delay:-4.65882s;animation-direction:normal">rocket</d:name><d:tags class="ld ld-tremble-px" style="transform-origin:50px 50px 0;animation-duration:9.9s;animation-delay:-4.07647s;animation-direction:normal">space shuttle, missile, space, travel, fire, take off, rocket, business</d:tags><d:license class="ld ld-tremble-px" style="transform-origin:50px 50px 0;animation-duration:9.9s;animation-delay:-3.49412s;animation-direction:normal">rf</d:license><d:slug class="ld ld-tremble-px" style="transform-origin:50px 50px 0;animation-duration:9.9s;animation-delay:-2.91176s;animation-direction:normal">q4nz7f</d:slug></metadata></g></g></g></g><style class="ld ld-tremble-px" type="text/css" style="transform-origin:50px 50px 0px;animation-duration:9.9s;animation-delay:-2.32941s;animation-direction:normal">@keyframes ld-tremble-px{0%,40%{-webkit-transform:translate(1px,1px);transform:translate(1px,1px)}35%,5%{-webkit-transform:translate(0,1px);transform:translate(0,1px)}10%,25%,55%{-webkit-transform:translate(1px,2px);transform:translate(1px,2px)}15%,50%{-webkit-transform:translate(2px,1px);transform:translate(2px,1px)}20%,70%{-webkit-transform:translate(3px,0);transform:translate(3px,0)}30%{-webkit-transform:translate(1px,3px);transform:translate(1px,3px)}45%,85%{-webkit-transform:translate(1px,0);transform:translate(1px,0)}60%{-webkit-transform:translate(3px,1px);transform:translate(3px,1px)}65%,90%{-webkit-transform:translate(0,2px);transform:translate(0,2px)}75%{-webkit-transform:translate(0,0);transform:translate(0,0)}80%{-webkit-transform:translate(2px,3px);transform:translate(2px,3px)}95%{-webkit-transform:translate(3px,2px);transform:translate(3px,2px)}}@-webkit-keyframes ld-tremble-px{0%,40%{-webkit-transform:translate(1px,1px);transform:translate(1px,1px)}35%,5%{-webkit-transform:translate(0,1px);transform:translate(0,1px)}10%,25%,55%{-webkit-transform:translate(1px,2px);transform:translate(1px,2px)}15%,50%{-webkit-transform:translate(2px,1px);transform:translate(2px,1px)}20%,70%{-webkit-transform:translate(3px,0);transform:translate(3px,0)}30%{-webkit-transform:translate(1px,3px);transform:translate(1px,3px)}45%,85%{-webkit-transform:translate(1px,0);transform:translate(1px,0)}60%{-webkit-transform:translate(3px,1px);transform:translate(3px,1px)}65%,90%{-webkit-transform:translate(0,2px);transform:translate(0,2px)}75%{-webkit-transform:translate(0,0);transform:translate(0,0)}80%{-webkit-transform:translate(2px,3px);transform:translate(2px,3px)}95%{-webkit-transform:translate(3px,2px);transform:translate(3px,2px)}}ellipse,path,polygon{stroke-width:0}.ld.ld-tremble-px{-webkit-animation:ld-tremble-px 1s infinite;animation:ld-tremble-px 1s infinite}</style></svg>