<?xml version="1.0" encoding="utf-8"?>
<!-- Generator: Adobe Illustrator 22.0.0, SVG Export Plug-In . SVG Version: 6.00 Build 0)  -->
<svg version="1.1" id="图层_1" xmlns="http://www.w3.org/2000/svg" xmlns:xlink="http://www.w3.org/1999/xlink" x="0px" y="0px"
	 viewBox="0 0 512 512" style="enable-background:new 0 0 512 512;" xml:space="preserve">
<style type="text/css">
	.st0{fill:#F53415;}
	.st1{fill:#FFFFFF;}
	.st2{fill:#383838;}
</style>
<path class="st0" d="M64,0h384c42.7,0,64,21.3,64,64v384c0,42.7-21.3,64-64,64H64c-42.7,0-64-21.3-64-64V64C0,21.3,21.3,0,64,0z"/>
<path class="st1" d="M137.3,151.7c0.5,6.8,1.3,13.8,1.6,20.7c0.7,12-5,23.6-15,30.3c-7.9,5.7-16.9,9.9-26.5,12.2
	c-7.6,2.2-15.5-2.1-17.7-9.7c-0.8-2.6-0.8-5.5,0-8.1c1.6-6.4,4-12.6,7.1-18.5c7.9-13.9,13.8-28.9,17.5-44.5c0.7-2.9,1.7-5.7,3-8.4
	c2.2-4.6,7.4-6.9,12.3-5.7c3.7,1.1,7.3,2.5,10.7,4.4c5.2,2.7,10.7,5.9,15.5,8.7c3.2-3.3,6.2-6.9,9.5-10.1
	c11.8-10.8,25.3-19.4,40.1-25.4c22.5-10.8,46.2-19,70.5-24.4c11.4-2.3,22.9-3.9,34.5-4.8c13.9-1,27.7-1.5,41.6-1.2
	c17.9-0.4,35.7,3.2,51.9,10.7c9.1,3.4,15.8,11.1,17.9,20.6c0.9,7.1,0.9,14.3,0,21.3c-1.8,12-5.4,23.6-10.7,34.5
	c-1.8,3-4.4,5.5-7.6,7c-7.5,4-15.7,6.8-24.1,8.1c-23.5,5.1-48,3.6-70.7-4.5c-13-5.2-24.7-13.3-34.1-23.7c-0.8-1.2-1.9-2.3-3.1-3.1
	c-1.3-0.6-3.4-1.2-4.4,0c-1.1,1.1-1.6,2.6-1.3,4.2c0.5,1.7,1.4,3.2,2.7,4.5c13.9,15.3,32.1,26,52.3,30.6c24.2,5.9,49.6,4.8,73.3-3.1
	c1.4-0.4,2.7-1,4.1-1.6c1.4-0.7,2.9-1.2,4.4-1.6c-2.7,3.9-5.1,7.9-7.9,11.6c-17.8,25-43.4,43.3-72.9,51.9c-18.9,5.1-38.8,5.1-57.7,0
	c-31.8-7.3-61.5-21.9-86.7-42.7c-8.1-6.4-15.1-14.2-20.6-22.9c-2-3.3-3.6-6.9-4.7-10.7c-0.3-2.7-2.1-5-4.7-5.9V151.7z M370.5,75.2
	c-3.7,0-7.5,0-10.7,1.1c-5.7,0.7-11.1,2.9-15.6,6.4c-2.8,1.7-3.7,5.4-2,8.2c0.7,1.1,1.7,2,2.9,2.5c1.8,0.9,3.8,1.7,5.8,2.2
	c8.8,1.8,17.9,2,26.8,0.4c4.7-0.7,9.3-1.9,13.8-3.7c3.2-1.1,5.3-4.1,5.1-7.5c0-3.5-3-4.8-5.7-6.1c-6.4-2.7-13.4-4-20.4-3.7
	L370.5,75.2z M263.8,116.7c5,0.3,9.3-3.5,9.6-8.5c0,0,0,0,0,0c-0.3-5-4.7-8.9-9.7-8.6c-4.7-0.5-9,2.9-9.5,7.6
	c-0.5,4.7,2.9,9,7.6,9.5c0.6,0.1,1.3,0.1,1.9,0H263.8z M305.6,323.4h-7.3c-0.6,0-1.6-1.2-1.7-1.9c-1.8-6.8-3.3-13.8-5.1-20.6
	c-0.8-2.7-2.1-5.3-3.7-7.6c-1.3-2.6-4.4-3.6-7-2.3c-0.8,0.4-1.4,1-1.9,1.7c-2.6,3.2-4.8,6.8-6.4,10.7c-2.2,5.4-4.2,11-5.8,16.6
	c-0.6,2.3-1.5,3.6-4.2,3.2c-1.6-0.1-3.3-0.1-4.9,0c0-10,0.7-19.6,1.1-30.1c-1.9,0.7-3.7,1.7-5.4,2.8c-3.2,2.5-6.3,5.2-9.2,8
	c-5.1,5.3-10.1,10.7-15.1,16.2c-3.2,3.4-4.3,3.7-9.7,2.6l19.4-32.7c-6.2-0.9-11.6-4.9-14.2-10.7c-1.6-3.9-1.6-8.3,0-12.2
	c0,1.4,0.6,2.9,1.1,4.3c1.5,6.5,8,10.7,14.5,9.2c0.4-0.1,0.8-0.2,1.1-0.3c2-0.7,3.7-2,4.9-3.7c6.3-10.7,12.4-20.5,18.3-30.8
	c0.7-1.6,2.6-2.5,4.3-1.9c9.8,2.1,19.9,2.1,29.8,0c2.1-0.5,4.2-1.5,6.5-2.3v81.4L305.6,323.4z"/>
<path class="st2" d="M396.5,85.3c0-3.5-3-4.8-5.7-6.1c-6.4-2.7-13.4-4-20.4-3.7c-3.7,0-7.5,0-10.7,1.1c-5.7,0.7-11.1,2.9-15.6,6.4
	c-2.8,1.7-3.7,5.4-2,8.2c0.7,1.1,1.7,2,2.9,2.5c1.8,0.9,3.8,1.7,5.8,2.2c8.8,1.7,17.9,1.8,26.8,0.1c4.7-0.7,9.3-1.9,13.8-3.7
	C394.3,91.2,396.4,88.5,396.5,85.3z M400.1,155.3c-1.8,3-4.4,5.5-7.6,7c-7.5,4-15.7,6.8-24.1,8.1c-23.3,4.6-47.5,2.7-69.8-5.5
	c-13-5.2-24.7-13.3-34.1-23.7c-0.8-1.2-1.9-2.3-3.1-3.1c-1.3-0.6-3.4-1.2-4.4,0c-1.1,1.1-1.6,2.6-1.3,4.2c0.5,1.7,1.4,3.2,2.7,4.5
	c13.9,15.3,32.1,26,52.3,30.6c24.2,5.9,49.6,4.8,73.3-3.1c1.4-0.4,2.7-1,4.1-1.6c1.4-0.7,2.9-1.2,4.4-1.6c0,0,4.9-9,9.1-19
	L400.1,155.3z M254,108.2c0.8,5.3,5.7,9,11,8.2c4.2-0.6,7.5-3.9,8.2-8.2c-0.3-5-4.7-8.9-9.7-8.6C258.5,99.3,254.2,103.1,254,108.2
	C254,108.1,254,108.2,254,108.2L254,108.2z"/>
<path class="st1" d="M190.4,368c-0.9,2.7-5.8,3.3-24.6,3.3s-23.4,0.6-23.4,3.3S150,378,198,378s55.6,0,55.6-3.4s-4.3-3.3-24.4-3.3
	s-24.4-0.6-24.4-3.3s-2.2-3.3-6.5-3.3C195.2,364.4,192.3,365.6,190.4,368z M294.9,368c-1,2.5-4.5,3.3-12.5,3.3s-10.7,0.9-10.7,3.3
	s2.5,3.4,8.9,3.4s9,0,9,1.1c-1.9,5-4.2,9.8-6.7,14.5c-2.7,5-4.9,10.1-6.6,15.5c0,1.4,8.2,2.2,21.3,2.2h21.3v17.8
	c0,15.4-0.7,18.2-4.5,20.5c-2.3,1.2-3.9,3.4-4.5,6c0,4.9,13.8,1.1,19.6-5.5c4.2-4.7,4.8-8.2,4.8-22.2v-16.5h22.3
	c18,0,22.2-0.6,22.2-3.3s-4.4-3.3-21.3-3.7l-21.3-0.7l-0.6-9.5c-0.7-9.2-1-9.4-8.5-9.4s-7.6,0-7.6,10v10h-10.7
	c-4.1,0.2-8.2-0.3-12.2-1.4c0.6-4.7,2.2-9.3,4.7-13.3l5.8-11.9h38.4c32.7,0,38.5,0,38.5-3.4s-5.5-3.3-36.7-3.3s-36.5,0-35.3-3.3
	s-0.5-3.3-6.5-3.3s-8.2,1.3-9.1,3.3H294.9z M146.5,397.1c-0.5,4.4-0.5,8.9,0,13.3c7.6,0.8,15.2,1.1,22.8,0.9h21.9v12.1
	c0,17.1-2.2,25.3-6.9,26.9c-2.3,0.6-4,2.6-4.3,4.9c0,4.9,12.7,2.2,19.4-4.3c4.4-4.2,5.1-6.8,5.1-22.2v-17.4h44.4v-26.7H147.3
	L146.5,397.1z M235.3,397.1l-0.6,6.2h-73.4l-0.6-6.2l-0.6-5.8h75.9L235.3,397.1z M154.9,429.1c-2,7.4-4.9,14.5-8.4,21.3l-4.5,7.4
	h4.7c5.1,0,16-13.3,22.6-27.8c5.8-12.4,5.3-14.4-3.1-14.4s-7.6,0-11.3,13.8L154.9,429.1z M222.4,418.5c3.5,11.7,9.1,22.5,16.7,32
	c2.5,3.3,6,5.7,9.9,6.9c3.8,0,3.8-0.6-1.1-9.6c-3.7-6.7-6.4-13.9-8-21.3c-2.7-10.7-2.9-11.5-10.7-11.5c-5.1,0-7.4,1.1-7.4,3.3
	L222.4,418.5z M286.4,416.7c-1.1,3.5-2,7.1-2.7,10.7c-1.4,6.8-3.7,13.4-6.8,19.6c-4.3,8.2-4.7,10.7-2.2,10.7c6.2,0,22-22,26.7-37.3
	c1.6-4.5,0.9-4.9-6.2-4.9c-4.3,0-8.2,0.6-8.7,1.6V416.7z M349.3,416c1.5,4.5,3.3,8.8,5.3,13.1c5.8,13.1,18,28.3,22.7,28.3
	s3.9-1.1-0.6-8c-3.2-6.1-5.7-12.6-7.4-19.3c-3.8-13.7-4.1-13.9-11.8-14.5h-8.2V416z"/>
</svg>
